<svg xmlns="http://www.w3.org/2000/svg" viewBox="0 0 448 448">
<path d="M384,0c35.3,0,64,28.7,64,64v320c0,35.3-28.7,64-64,64H64c-35.3,0-64-28.7-64-64V64C0,28.7,28.6,0,64,0H384z M48,384
	c0,8.8,7.2,16,16,16h320c8.8,0,16-7.2,16-16V128H48V384z"/>
<path d="M182.5,377h-43.9V211.5c-16,15-34.9,26.1-56.7,33.3v-39.8c11.5-3.8,23.9-10.9,37.3-21.3s22.7-22.7,27.7-36.6h35.6V377z
	 M253.8,253.4c-11.4-4.8-19.6-11.4-24.8-19.8c-5.2-8.4-7.7-17.6-7.7-27.6c0-17.1,6-31.2,17.9-42.3c11.9-11.1,28.9-16.7,50.9-16.7
	c21.8,0,38.7,5.6,50.7,16.7c12,11.1,18,25.3,18,42.3c0,10.6-2.8,20.1-8.3,28.4c-5.5,8.3-13.3,14.6-23.3,19
	c12.7,5.1,22.4,12.6,29,22.3c6.6,9.8,9.9,21.1,9.9,33.9c0,21.1-6.7,38.3-20.2,51.6c-13.5,13.2-31.4,19.8-53.8,19.8
	c-20.8,0-38.2-5.5-52-16.4c-16.4-12.9-24.5-30.6-24.5-53.1c0-12.4,3.1-23.8,9.2-34.1C230.9,267,240.6,259,253.8,253.4z M258.8,307.3
	c0,12.1,3.1,21.5,9.3,28.3c6.2,6.8,13.9,10.2,23.2,10.2c9.1,0,16.6-3.3,22.5-9.8c5.9-6.5,8.9-15.9,8.9-28.2c0-10.7-3-19.3-9.1-25.9
	c-6-6.5-13.7-9.8-23-9.8c-10.7,0-18.7,3.7-24,11.1C261.4,290.6,258.8,298.6,258.8,307.3z M262.8,209.2c0,8.8,2.5,15.6,7.4,20.5
	c4.9,4.9,11.5,7.3,19.8,7.3c8.3,0,15-2.5,20-7.4c5-4.9,7.5-11.8,7.5-20.5c0-8.2-2.5-14.8-7.4-19.8c-4.9-4.9-11.5-7.4-19.6-7.4
	c-8.4,0-15.2,2.5-20.2,7.5S262.8,200.9,262.8,209.2z"/>
</svg>
