<svg xmlns="http://www.w3.org/2000/svg" viewBox="0 0 448 448">
	<path d="M384,0c35.3,0,64,28.7,64,64v320c0,35.3-28.7,64-64,64H64c-35.3,0-64-28.7-64-64V64C0,28.7,28.6,0,64,0H384z M48,384
	c0,8.8,7.2,16,16,16h320c8.8,0,16-7.2,16-16V128H48V384z"/>
	<path d="M180.2,377.3h-43.9V211.8c-16,15-34.9,26.1-56.7,33.3v-39.8c11.5-3.8,23.9-10.9,37.3-21.3s22.7-22.7,27.7-36.6h35.6V377.3z
	 M214.4,318.4l43.8-4.5c1.2,9.9,4.9,17.7,11.1,23.5c6.1,5.8,13.2,8.7,21.2,8.7c9.2,0,16.9-3.7,23.3-11.2c6.4-7.4,9.5-18.7,9.5-33.7
	c0-14.1-3.2-24.6-9.5-31.6c-6.3-7-14.5-10.5-24.6-10.5c-12.6,0-23.9,5.6-33.9,16.7l-35.6-5.2l22.5-119.2h116.1v41.1h-82.8l-6.9,38.9
	c9.8-4.9,19.8-7.3,30-7.3c19.5,0,36,7.1,49.5,21.2c13.5,14.2,20.3,32.6,20.3,55.2c0,18.9-5.5,35.7-16.4,50.5
	c-14.9,20.2-35.6,30.3-62,30.3c-21.1,0-38.4-5.7-51.7-17C225,352.8,217,337.6,214.4,318.4z"/>
</svg>
