<svg xmlns="http://www.w3.org/2000/svg" viewBox="0 0 448 448">
	<path d="M384,0c35.3,0,64,28.7,64,64v320c0,35.3-28.7,64-64,64H64c-35.3,0-64-28.7-64-64V64C0,28.7,28.6,0,64,0H384z M48,384
	c0,8.8,7.2,16,16,16h320c8.8,0,16-7.2,16-16V128H48V384z"/>
<path d="M217,336.3v40.8H63.1c1.7-15.4,6.7-30,15-43.8c8.3-13.8,24.8-32.1,49.4-54.9c19.8-18.4,31.9-30.9,36.4-37.5
	c6-9.1,9.1-18,9.1-26.9c0-9.8-2.6-17.3-7.9-22.6c-5.3-5.3-12.5-7.9-21.8-7.9c-9.2,0-16.5,2.8-21.9,8.3c-5.4,5.5-8.5,14.7-9.4,27.5
	l-43.8-4.4c2.6-24.2,10.8-41.5,24.5-52c13.8-10.5,30.9-15.8,51.6-15.8c22.6,0,40.4,6.1,53.3,18.3c12.9,12.2,19.4,27.3,19.4,45.5
	c0,10.3-1.9,20.1-5.5,29.5c-3.7,9.3-9.6,19.1-17.6,29.3c-5.3,6.8-14.9,16.5-28.8,29.2c-13.9,12.7-22.6,21.1-26.3,25.3
	c-3.7,4.2-6.7,8.2-9,12.2H217z M380.7,204.1l-42.5,4.7c-1-8.8-3.8-15.2-8.1-19.4c-4.4-4.2-10.1-6.2-17-6.2
	c-9.3,0-17.1,4.2-23.5,12.5c-6.4,8.3-10.4,25.7-12.1,52c10.9-12.9,24.5-19.4,40.8-19.4c18.3,0,34,7,47.1,20.9
	c13.1,14,19.6,32,19.6,54.1c0,23.4-6.9,42.2-20.6,56.4c-13.8,14.2-31.4,21.2-53,21.2c-23.1,0-42.1-9-57-27
	c-14.9-18-22.3-47.4-22.3-88.4c0-42,7.8-72.2,23.3-90.8c15.5-18.5,35.7-27.8,60.5-27.8c17.4,0,31.8,4.9,43.2,14.6
	C370.3,171.5,377.6,185.6,380.7,204.1z M281.2,299.9c0,14.3,3.3,25.3,9.8,33c6.6,7.8,14.1,11.6,22.5,11.6c8.1,0,14.9-3.2,20.3-9.5
	c5.4-6.4,8.1-16.8,8.1-31.2c0-14.9-2.9-25.8-8.8-32.7c-5.8-6.9-13.1-10.4-21.9-10.4c-8.4,0-15.6,3.3-21.4,9.9
	C284.1,277.2,281.2,287,281.2,299.9z"/>
</svg>
