<svg xmlns="http://www.w3.org/2000/svg" viewBox="0 0 448 448">
  <path d="M384,0c35.3,0,64,28.7,64,64v320c0,35.3-28.7,64-64,64H64c-35.3,0-64-28.7-64-64V64C0,28.7,28.6,0,64,0H384z M48,384 c0,8.8,7.2,16,16,16h320c8.8,0,16-7.2,16-16V128H48V384z"/>
  <path d="M187.6,252.6c-11.2-4.7-19.3-11.2-24.3-19.4c-5.1-8.2-7.6-17.3-7.6-27.1c0-16.8,5.9-30.7,17.6-41.6 c11.7-11,28.4-16.4,50-16.4c21.4,0,38,5.5,49.8,16.4c11.8,11,17.7,24.8,17.7,41.6c0,10.4-2.7,19.7-8.1,27.9 c-5.4,8.1-13.1,14.4-22.9,18.7c12.5,5,22,12.3,28.5,22c6.5,9.6,9.7,20.7,9.7,33.3c0,20.8-6.6,37.7-19.9,50.7 c-13.3,13-30.9,19.5-52.9,19.5c-20.5,0-37.5-5.4-51.1-16.1C158,349.2,150,331.8,150,309.7c0-12.2,3-23.4,9.1-33.5 C165.1,266,174.6,258.1,187.6,252.6z M192.5,305.6c0,11.9,3,21.1,9.1,27.8c6.1,6.7,13.7,10,22.8,10c8.9,0,16.3-3.2,22.1-9.6 c5.8-6.4,8.8-15.6,8.8-27.7c0-10.5-3-19-8.9-25.4c-5.9-6.4-13.5-9.6-22.6-9.6c-10.5,0-18.4,3.6-23.6,10.9 C195.1,289.2,192.5,297.1,192.5,305.6z M196.5,209.1c0,8.6,2.4,15.3,7.3,20.1c4.9,4.8,11.3,7.2,19.4,7.2c8.2,0,14.7-2.4,19.7-7.3 c4.9-4.9,7.4-11.6,7.4-20.2c0-8.1-2.4-14.6-7.3-19.4c-4.9-4.9-11.3-7.3-19.3-7.3c-8.3,0-14.9,2.5-19.8,7.4 C199,194.6,196.5,201.1,196.5,209.1z"/>
</svg>
