<svg xmlns="http://www.w3.org/2000/svg" viewBox="0 0 448 448">
	<path d="M384,0c35.3,0,64,28.7,64,64v320c0,35.3-28.7,64-64,64H64c-35.3,0-64-28.7-64-64V64C0,28.7,28.6,0,64,0H384z M48,384
	c0,8.8,7.2,16,16,16h320c8.8,0,16-7.2,16-16V128H48V384z"/>
	<path d="M218.7,336.3V377H64.8c1.7-15.4,6.7-30,15-43.8c8.3-13.8,24.8-32.1,49.4-54.9c19.8-18.4,31.9-30.9,36.4-37.5
	c6-9.1,9.1-18,9.1-26.9c0-9.8-2.6-17.3-7.9-22.6c-5.3-5.3-12.5-7.9-21.8-7.9c-9.2,0-16.5,2.8-21.9,8.3c-5.4,5.5-8.5,14.7-9.4,27.5
	L70,214.9c2.6-24.2,10.8-41.5,24.5-52c13.8-10.5,30.9-15.8,51.6-15.8c22.6,0,40.4,6.1,53.3,18.3c12.9,12.2,19.4,27.3,19.4,45.5
	c0,10.3-1.9,20.1-5.5,29.5c-3.7,9.3-9.6,19.1-17.6,29.3c-5.3,6.8-14.9,16.5-28.8,29.2c-13.9,12.7-22.6,21.1-26.3,25.3
	c-3.7,4.2-6.7,8.2-9,12.2H218.7z M234.6,324.1l42.5-4.7c1,8.6,3.8,15.1,8.1,19.2c4.4,4.2,10.2,6.2,17.3,6.2
	c9.1,0,16.8-4.2,23.1-12.5c6.4-8.3,10.4-25.6,12.2-51.9c-11,12.8-24.8,19.2-41.4,19.2c-18,0-33.6-7-46.6-20.9
	c-13.1-13.9-19.6-32-19.6-54.3c0-23.2,6.9-42,20.7-56.2c13.8-14.2,31.4-21.3,52.7-21.3c23.2,0,42.3,9,57.2,27
	c14.9,18,22.3,47.5,22.3,88.7c0,41.9-7.8,72.1-23.3,90.6c-15.5,18.5-35.7,27.8-60.6,27.8c-17.9,0-32.4-4.8-43.4-14.3
	C244.8,357.3,237.7,343,234.6,324.1z M334,228.1c0-14.2-3.3-25.2-9.8-33c-6.5-7.8-14-11.7-22.6-11.7c-8.1,0-14.9,3.2-20.2,9.6
	c-5.4,6.4-8,16.9-8,31.5c0,14.8,2.9,25.7,8.8,32.6c5.8,6.9,13.1,10.4,21.9,10.4c8.4,0,15.5-3.3,21.3-10
	C331.1,250.8,334,241.1,334,228.1z"/>
</svg>
