<svg xmlns="http://www.w3.org/2000/svg" viewBox="0 0 448 448">
<path d="M384,0c35.3,0,64,28.7,64,64v320c0,35.3-28.7,64-64,64H64c-35.3,0-64-28.7-64-64V64C0,28.7,28.6,0,64,0H384z M48,384
	c0,8.8,7.2,16,16,16h320c8.8,0,16-7.2,16-16V128H48V384z"/>
<path d="M219.8,336.3V377H65.9c1.7-15.4,6.7-30,15-43.8c8.3-13.8,24.8-32.1,49.4-54.9c19.8-18.4,31.9-30.9,36.4-37.5
	c6-9.1,9.1-18,9.1-26.9c0-9.8-2.6-17.3-7.9-22.6c-5.3-5.3-12.5-7.9-21.8-7.9c-9.2,0-16.5,2.8-21.9,8.3c-5.4,5.5-8.5,14.7-9.4,27.5
	l-43.8-4.4c2.6-24.2,10.8-41.5,24.5-52c13.8-10.5,30.9-15.8,51.6-15.8c22.6,0,40.4,6.1,53.3,18.3c12.9,12.2,19.4,27.3,19.4,45.5
	c0,10.3-1.9,20.1-5.5,29.5c-3.7,9.3-9.6,19.1-17.6,29.3c-5.3,6.8-14.9,16.5-28.8,29.2c-13.9,12.7-22.6,21.1-26.3,25.3
	c-3.7,4.2-6.7,8.2-9,12.2H219.8z M307.7,147c22.2,0,39.5,7.9,52,23.8c14.9,18.8,22.3,49.8,22.3,93.3c0,43.3-7.5,74.5-22.5,93.4
	c-12.4,15.6-29.7,23.4-51.9,23.4c-22.3,0-40.3-8.6-53.9-25.7c-13.6-17.1-20.5-47.7-20.5-91.6c0-43.1,7.5-74.2,22.5-93.1
	C268.2,154.9,285.5,147,307.7,147z M307.7,183.5c-5.3,0-10.1,1.7-14.2,5.1c-4.2,3.4-7.4,9.5-9.7,18.2c-3,11.4-4.5,30.5-4.5,57.3
	s1.4,45.3,4.1,55.4c2.7,10.1,6.1,16.7,10.2,20.1c4.1,3.3,8.8,5,14.1,5s10.1-1.7,14.2-5.1c4.2-3.4,7.4-9.5,9.7-18.2
	c3-11.2,4.5-30.3,4.5-57.2s-1.4-45.3-4.1-55.4c-2.7-10.1-6.1-16.8-10.2-20.2C317.7,185.1,313,183.5,307.7,183.5z"/>
</svg>
