<svg xmlns="http://www.w3.org/2000/svg" viewBox="0 0 448 448">
<path d="M384,0c35.3,0,64,28.7,64,64v320c0,35.3-28.7,64-64,64H64c-35.3,0-64-28.7-64-64V64C0,28.7,28.6,0,64,0H384z M48,384
	c0,8.8,7.2,16,16,16h320c8.8,0,16-7.2,16-16V128H48V384z"/>
<path d="M218.8,336.3v40.8H64.9c1.7-15.4,6.7-30,15-43.8c8.3-13.8,24.8-32.1,49.4-54.9c19.8-18.4,31.9-30.9,36.4-37.5
	c6-9.1,9.1-18,9.1-26.9c0-9.8-2.6-17.3-7.9-22.6c-5.3-5.3-12.5-7.9-21.8-7.9c-9.2,0-16.5,2.8-21.9,8.3c-5.4,5.5-8.5,14.7-9.4,27.5
	L70,214.9c2.6-24.2,10.8-41.5,24.5-52c13.8-10.5,30.9-15.8,51.6-15.8c22.6,0,40.4,6.1,53.3,18.3c12.9,12.2,19.4,27.3,19.4,45.5
	c0,10.3-1.9,20.1-5.5,29.5c-3.7,9.3-9.6,19.1-17.6,29.3c-5.3,6.8-14.9,16.5-28.8,29.2c-13.9,12.7-22.6,21.1-26.3,25.3
	c-3.7,4.2-6.7,8.2-9,12.2H218.8z M230.9,316.3l42.5-5.2c1.4,10.8,5,19.1,10.9,24.8c5.9,5.7,13.1,8.6,21.6,8.6
	c9.1,0,16.7-3.4,22.9-10.3c6.2-6.9,9.3-16.1,9.3-27.8c0-11-3-19.8-8.9-26.2c-5.9-6.5-13.2-9.7-21.7-9.7c-5.6,0-12.3,1.1-20.2,3.3
	l4.8-35.8c11.9,0.3,20.9-2.3,27.2-7.7s9.4-12.7,9.4-21.8c0-7.7-2.3-13.9-6.9-18.4c-4.6-4.6-10.7-6.9-18.3-6.9
	c-7.5,0-13.9,2.6-19.2,7.8c-5.3,5.2-8.5,12.8-9.7,22.8l-40.5-6.9c2.8-13.9,7.1-24.9,12.7-33.2c5.7-8.3,13.6-14.8,23.8-19.5
	c10.2-4.7,21.5-7.1,34.1-7.1c21.6,0,38.9,6.9,51.9,20.6c10.7,11.2,16.1,24,16.1,38.1c0,20.1-11,36.1-33,48.1
	c13.1,2.8,23.6,9.1,31.5,18.9c7.9,9.8,11.8,21.6,11.8,35.5c0,20.1-7.3,37.2-22,51.4c-14.7,14.2-33,21.2-54.8,21.2
	c-20.7,0-37.9-6-51.6-17.9C241,351.2,233.1,335.6,230.9,316.3z"/>
</svg>
