<svg xmlns="http://www.w3.org/2000/svg" viewBox="0 0 448 448">
<path d="M384,0c35.3,0,64,28.7,64,64v320c0,35.3-28.7,64-64,64H64c-35.3,0-64-28.7-64-64V64C0,28.7,28.6,0,64,0H384z M48,384
	c0,8.8,7.2,16,16,16h320c8.8,0,16-7.2,16-16V128H48V384z"/>
<path d="M216.1,336.3v40.8H62.2c1.7-15.4,6.7-30,15-43.8c8.3-13.8,24.8-32.1,49.4-54.9c19.8-18.4,31.9-30.9,36.4-37.5
	c6-9.1,9.1-18,9.1-26.9c0-9.8-2.6-17.3-7.9-22.6c-5.3-5.3-12.5-7.9-21.8-7.9c-9.2,0-16.5,2.8-21.9,8.3c-5.4,5.5-8.5,14.7-9.4,27.5
	l-43.8-4.4c2.6-24.2,10.8-41.5,24.5-52c13.8-10.5,30.9-15.8,51.6-15.8c22.6,0,40.4,6.1,53.3,18.3c12.9,12.2,19.4,27.3,19.4,45.5
	c0,10.3-1.9,20.1-5.5,29.5c-3.7,9.3-9.6,19.1-17.6,29.3c-5.3,6.8-14.9,16.5-28.8,29.2c-13.9,12.7-22.6,21.1-26.3,25.3
	c-3.7,4.2-6.7,8.2-9,12.2H216.1z M231.7,318.2l43.8-4.5c1.2,9.9,4.9,17.7,11.1,23.5c6.1,5.8,13.2,8.7,21.2,8.7
	c9.2,0,16.9-3.7,23.3-11.2c6.4-7.4,9.5-18.7,9.5-33.7c0-14.1-3.2-24.6-9.5-31.6c-6.3-7-14.5-10.5-24.6-10.5
	c-12.6,0-23.9,5.6-33.9,16.7l-35.6-5.2l22.5-119.2h116.1v41.1h-82.8l-6.9,38.9c9.8-4.9,19.8-7.3,30-7.3c19.5,0,36,7.1,49.5,21.2
	c13.5,14.2,20.3,32.6,20.3,55.2c0,18.9-5.5,35.7-16.4,50.5c-14.9,20.2-35.6,30.3-62,30.3c-21.1,0-38.4-5.7-51.7-17
	C242.3,352.6,234.3,337.3,231.7,318.2z"/>
</svg>
