<svg xmlns="http://www.w3.org/2000/svg" viewBox="0 0 448 448">
	<path d="M384,0c35.3,0,64,28.7,64,64v320c0,35.3-28.7,64-64,64H64c-35.3,0-64-28.7-64-64V64C0,28.7,28.6,0,64,0H384z M48,384
	c0,8.8,7.2,16,16,16h320c8.8,0,16-7.2,16-16V128H48V384z"/>
	<path d="M193.4,375.2h-43.2V212.5c-15.8,14.7-34.4,25.7-55.8,32.7V206c11.3-3.7,23.5-10.7,36.7-21c13.2-10.3,22.3-22.3,27.2-36h35
	V375.2z M333.5,375.2h-43.2V212.5c-15.8,14.7-34.4,25.7-55.8,32.7V206c11.3-3.7,23.5-10.7,36.7-21c13.2-10.3,22.3-22.3,27.2-36h35
	V375.2z"/>
</svg>
