<svg xmlns="http://www.w3.org/2000/svg" viewBox="0 0 448 448">
	<path d="M384,0c35.3,0,64,28.7,64,64v320c0,35.3-28.7,64-64,64H64c-35.3,0-64-28.7-64-64V64C0,28.7,28.6,0,64,0H384z M48,384
	c0,8.8,7.2,16,16,16h320c8.8,0,16-7.2,16-16V128H48V384z"/>
	<path d="M153.1,322l41.8-4.6c1,8.5,3.7,14.8,8,18.9c4.3,4.1,10,6.1,17,6.1c8.9,0,16.5-4.1,22.7-12.3c6.2-8.2,10.2-25.2,12-51
	c-10.9,12.6-24.4,18.9-40.7,18.9c-17.7,0-33-6.8-45.8-20.5c-12.8-13.7-19.3-31.4-19.3-53.4c0-22.8,6.8-41.2,20.3-55.2
	c13.6-14,30.8-21,51.8-21c22.8,0,41.6,8.8,56.2,26.5c14.6,17.7,22,46.7,22,87.1c0,41.1-7.6,70.8-22.9,89.1
	C261,368.9,241.2,378,216.7,378c-17.6,0-31.8-4.7-42.7-14C163.2,354.6,156.2,340.6,153.1,322z M250.8,227.7
	c0-13.9-3.2-24.7-9.6-32.4c-6.4-7.7-13.8-11.5-22.2-11.5c-8,0-14.6,3.1-19.9,9.4c-5.3,6.3-7.9,16.6-7.9,30.9c0,14.5,2.9,25.2,8.6,32
	c5.7,6.8,12.9,10.2,21.5,10.2c8.3,0,15.3-3.3,21-9.8C248,250,250.8,240.4,250.8,227.7z"/>
</svg>
