<svg xmlns="http://www.w3.org/2000/svg" viewBox="0 0 448 448">
<path d="M384,0c35.3,0,64,28.7,64,64v320c0,35.3-28.7,64-64,64H64c-35.3,0-64-28.7-64-64V64C0,28.7,28.6,0,64,0H384z M48,384
	c0,8.8,7.2,16,16,16h320c8.8,0,16-7.2,16-16V128H48V384z"/>
<path d="M182.7,377h-43.9V211.6c-16,15-34.9,26.1-56.7,33.3V205c11.5-3.8,23.9-10.9,37.3-21.3s22.7-22.7,27.7-36.6h35.6V377z
	 M217.3,324.1l42.5-4.7c1,8.6,3.8,15.1,8.1,19.2c4.4,4.2,10.2,6.2,17.3,6.2c9.1,0,16.8-4.2,23.1-12.5c6.4-8.3,10.4-25.6,12.2-51.9
	c-11,12.8-24.8,19.2-41.4,19.2c-18,0-33.6-7-46.6-20.9c-13.1-13.9-19.6-32-19.6-54.3c0-23.2,6.9-42,20.7-56.2
	c13.8-14.2,31.4-21.3,52.7-21.3c23.2,0,42.3,9,57.2,27c14.9,18,22.3,47.5,22.3,88.7c0,41.9-7.8,72.1-23.3,90.6
	c-15.5,18.5-35.7,27.8-60.6,27.8c-17.9,0-32.4-4.8-43.4-14.3C227.5,357.3,220.4,343,217.3,324.1z M316.7,228.1
	c0-14.2-3.3-25.2-9.8-33c-6.5-7.8-14-11.7-22.6-11.7c-8.1,0-14.9,3.2-20.2,9.6c-5.4,6.4-8,16.9-8,31.5c0,14.8,2.9,25.7,8.8,32.6
	c5.8,6.9,13.1,10.4,21.9,10.4c8.4,0,15.5-3.3,21.3-10C313.8,250.8,316.7,241.1,316.7,228.1z"/>
</svg>
