<svg xmlns="http://www.w3.org/2000/svg" viewBox="0 0 448 448">
	<path d="M384,0c35.3,0,64,28.7,64,64v320c0,35.3-28.7,64-64,64H64c-35.3,0-64-28.7-64-64V64C0,28.7,28.6,0,64,0H384z M48,384
	c0,8.8,7.2,16,16,16h320c8.8,0,16-7.2,16-16V128H48V384z"/>
<path d="M67.3,316.3l42.5-5.2c1.4,10.8,5,19.1,10.9,24.8c5.9,5.7,13.1,8.6,21.6,8.6c9.1,0,16.7-3.4,22.9-10.3
	c6.2-6.9,9.3-16.1,9.3-27.8c0-11-3-19.8-8.9-26.2c-5.9-6.5-13.2-9.7-21.7-9.7c-5.6,0-12.3,1.1-20.2,3.3l4.8-35.8
	c11.9,0.3,20.9-2.3,27.2-7.7s9.4-12.7,9.4-21.8c0-7.7-2.3-13.9-6.9-18.4c-4.6-4.6-10.7-6.9-18.3-6.9c-7.5,0-13.9,2.6-19.2,7.8
	c-5.3,5.2-8.5,12.8-9.7,22.8L70.6,207c2.8-13.9,7.1-24.9,12.7-33.2c5.7-8.3,13.6-14.8,23.8-19.5c10.2-4.7,21.5-7.1,34.1-7.1
	c21.6,0,38.9,6.9,51.9,20.6c10.7,11.2,16.1,24,16.1,38.1c0,20.1-11,36.1-33,48.1c13.1,2.8,23.6,9.1,31.5,18.9
	c7.9,9.8,11.8,21.6,11.8,35.5c0,20.1-7.3,37.2-22,51.4c-14.7,14.2-33,21.2-54.8,21.2c-20.7,0-37.9-6-51.6-17.9
	C77.4,351.2,69.5,335.6,67.3,316.3z M306.3,147.1c22.2,0,39.5,7.9,52,23.8c14.9,18.8,22.3,49.8,22.3,93.3c0,43.3-7.5,74.5-22.5,93.4
	c-12.4,15.6-29.7,23.4-51.9,23.4c-22.3,0-40.3-8.6-53.9-25.7c-13.6-17.1-20.5-47.7-20.5-91.6c0-43.1,7.5-74.2,22.5-93.1
	C266.8,154.9,284.1,147.1,306.3,147.1z M306.3,183.5c-5.3,0-10.1,1.7-14.2,5.1c-4.2,3.4-7.4,9.5-9.7,18.2c-3,11.4-4.5,30.5-4.5,57.3
	s1.4,45.3,4.1,55.4c2.7,10.1,6.1,16.7,10.2,20.1c4.1,3.3,8.8,5,14.1,5s10.1-1.7,14.2-5.1c4.2-3.4,7.4-9.5,9.7-18.2
	c3-11.2,4.5-30.3,4.5-57.2s-1.4-45.3-4.1-55.4c-2.7-10.1-6.1-16.8-10.2-20.2C316.4,185.2,311.6,183.5,306.3,183.5z"/>
</svg>
