<svg xmlns="http://www.w3.org/2000/svg" viewBox="0 0 448 448">
<path d="M384,0c35.3,0,64,28.7,64,64v320c0,35.3-28.7,64-64,64H64c-35.3,0-64-28.7-64-64V64C0,28.7,28.6,0,64,0H384z M48,384
	c0,8.8,7.2,16,16,16h320c8.8,0,16-7.2,16-16V128H48V384z"/>
<path d="M182.4,379h-43.9V213.5c-16,15-34.9,26.1-56.7,33.3V207c11.5-3.8,23.9-10.9,37.3-21.3s22.7-22.7,27.7-36.6h35.6V379z
	 M216,193.8v-40.8h150.2v31.9c-12.4,12.2-25,29.7-37.8,52.5s-22.6,47.1-29.3,72.7c-6.7,25.7-10,48.6-9.9,68.8h-42.3
	c0.7-31.7,7.3-64,19.6-96.9c12.3-32.9,28.8-62.3,49.5-88.3H216z"/>
</svg>
