<?xml version="1.0" encoding="utf-8"?>
<!-- Generator: Adobe Illustrator 27.1.1, SVG Export Plug-In . SVG Version: 6.00 Build 0)  -->
<svg version="1.1" id="Layer_1" xmlns="http://www.w3.org/2000/svg" xmlns:xlink="http://www.w3.org/1999/xlink" x="0px" y="0px"
	 viewBox="0 0 448 448" style="enable-background:new 0 0 448 448;" xml:space="preserve">
<style type="text/css">
	.st0{display:none;}
	.st1{display:inline;fill:#EF0000;}
	.st2{font-family:'Arial-BoldMT';}
	.st3{font-size:320px;}
	.st4{letter-spacing:-15;}
	.st5{letter-spacing:-32;}
	.st6{display:none;fill:#004E76;}
</style>
<text transform="matrix(1 0 0 1 47.025 377.1192)" class="st0"><tspan x="0" y="0" class="st1 st2 st3 st4">2</tspan><tspan x="162" y="0" class="st1 st2 st3 st5">1</tspan></text>
<rect x="48" y="128" class="st6" width="352" height="272"/>
<path d="M384,0c35.3,0,64,28.7,64,64v320c0,35.3-28.7,64-64,64H64c-35.3,0-64-28.7-64-64V64C0,28.7,28.6,0,64,0H384z M48,384
	c0,8.8,7.2,16,16,16h320c8.8,0,16-7.2,16-16V128H48V384z"/>
<path d="M231.9,338.2V379H78c1.7-15.4,6.7-30,15-43.8c8.3-13.8,24.8-32.1,49.4-54.9c19.8-18.4,31.9-30.9,36.4-37.5
	c6-9.1,9.1-18,9.1-26.9c0-9.8-2.6-17.3-7.9-22.6c-5.3-5.3-12.5-7.9-21.8-7.9c-9.2,0-16.5,2.8-21.9,8.3c-5.4,5.5-8.5,14.7-9.4,27.5
	l-43.8-4.4c2.6-24.2,10.8-41.5,24.5-52c13.8-10.5,30.9-15.8,51.6-15.8c22.6,0,40.4,6.1,53.3,18.3c12.9,12.2,19.4,27.3,19.4,45.5
	c0,10.3-1.9,20.1-5.5,29.5c-3.7,9.3-9.6,19.1-17.6,29.3c-5.3,6.8-14.9,16.5-28.8,29.2c-13.9,12.7-22.6,21.1-26.3,25.3
	c-3.7,4.2-6.7,8.2-9,12.2H231.9z M358,379h-43.9V213.5c-16,15-34.9,26.1-56.7,33.3V207c11.5-3.8,23.9-10.9,37.3-21.3
	s22.7-22.7,27.7-36.6H358V379z"/>
</svg>
