<svg xmlns="http://www.w3.org/2000/svg" viewBox="0 0 448 448">
	<path d="M384,0c35.3,0,64,28.7,64,64v320c0,35.3-28.7,64-64,64H64c-35.3,0-64-28.7-64-64V64C0,28.7,28.6,0,64,0H384z M48,384 c0,8.8,7.2,16,16,16h320c8.8,0,16-7.2,16-16V128H48V384z"/>
	<path d="M296.3,204.2l-42.5,4.7c-1-8.8-3.8-15.2-8.1-19.4c-4.4-4.2-10.1-6.2-17-6.2c-9.3,0-17.1,4.2-23.5,12.5 c-6.4,8.3-10.4,25.7-12.1,52c10.9-12.9,24.5-19.4,40.8-19.4c18.3,0,34,7,47.1,20.9c13.1,14,19.6,32,19.6,54.1 c0,23.4-6.9,42.2-20.6,56.4c-13.8,14.2-31.4,21.2-53,21.2c-23.1,0-42.1-9-57-27c-14.9-18-22.3-47.4-22.3-88.4 c0-42,7.8-72.2,23.3-90.8c15.5-18.5,35.7-27.8,60.5-27.8c17.4,0,31.8,4.9,43.2,14.6C285.9,171.5,293.1,185.6,296.3,204.2z M196.7,299.9c0,14.3,3.3,25.3,9.8,33c6.6,7.8,14.1,11.6,22.5,11.6c8.1,0,14.9-3.2,20.3-9.5c5.4-6.4,8.1-16.8,8.1-31.2 c0-14.9-2.9-25.8-8.8-32.7c-5.8-6.9-13.1-10.4-21.9-10.4c-8.4,0-15.6,3.3-21.4,9.9C199.6,277.3,196.7,287,196.7,299.9z"/>
</svg>
