<svg xmlns="http://www.w3.org/2000/svg" viewBox="0 0 448 448">
	<path d="M384,0c35.3,0,64,28.7,64,64v320c0,35.3-28.7,64-64,64H64c-35.3,0-64-28.7-64-64V64C0,28.7,28.6,0,64,0H384z M48,384 c0,8.8,7.2,16,16,16h320c8.8,0,16-7.2,16-16V128H48V384z"/>
	<path d="M182.5,375.2h-43.2V212.5c-15.8,14.7-34.4,25.7-55.8,32.7V206c11.3-3.7,23.5-10.7,36.7-21c13.2-10.3,22.3-22.3,27.2-36h35 V375.2z M290,149c21.8,0,38.9,7.8,51.2,23.4c14.6,18.4,22,49,22,91.7c0,42.6-7.4,73.2-22.1,91.9c-12.2,15.4-29.2,23-51,23 c-21.9,0-39.6-8.4-53-25.3c-13.4-16.8-20.1-46.9-20.1-90.1c0-42.4,7.4-72.9,22.1-91.6C251.2,156.7,268.2,149,290,149z M290,184.8 c-5.2,0-9.9,1.7-14,5c-4.1,3.3-7.3,9.3-9.5,17.9c-3,11.2-4.5,30-4.5,56.4c0,26.4,1.3,44.6,4,54.5c2.7,9.9,6,16.5,10.1,19.7 c4,3.3,8.7,4.9,13.9,4.9s9.9-1.7,14-5c4.1-3.3,7.3-9.3,9.5-17.9c3-11.1,4.5-29.8,4.5-56.2c0-26.4-1.3-44.6-4-54.5 c-2.7-9.9-6-16.5-10.1-19.8C299.9,186.5,295.3,184.8,290,184.8z"/>
</svg>
