<svg xmlns="http://www.w3.org/2000/svg" viewBox="0 0 448 448">
	<path d="M384,0c35.3,0,64,28.7,64,64v320c0,35.3-28.7,64-64,64H64c-35.3,0-64-28.7-64-64V64C0,28.7,28.6,0,64,0H384z M48,384
	c0,8.8,7.2,16,16,16h320c8.8,0,16-7.2,16-16V128H48V384z"/>
	<path d="M218.5,336.2V377H64.6c1.7-15.4,6.7-30,15-43.8c8.3-13.8,24.8-32.1,49.4-54.9c19.8-18.4,31.9-30.9,36.4-37.5
	c6-9.1,9.1-18,9.1-26.9c0-9.8-2.6-17.3-7.9-22.6c-5.3-5.3-12.5-7.9-21.8-7.9c-9.2,0-16.5,2.8-21.9,8.3c-5.4,5.5-8.5,14.7-9.4,27.5
	l-43.8-4.4c2.6-24.2,10.8-41.5,24.5-52c13.8-10.5,30.9-15.8,51.6-15.8c22.6,0,40.4,6.1,53.3,18.3c12.9,12.2,19.4,27.3,19.4,45.5
	c0,10.3-1.9,20.1-5.5,29.5c-3.7,9.3-9.6,19.1-17.6,29.3c-5.3,6.8-14.9,16.5-28.8,29.2c-13.9,12.7-22.6,21.1-26.3,25.3
	c-3.7,4.2-6.7,8.2-9,12.2H218.5z M271.1,253.4c-11.4-4.8-19.6-11.4-24.8-19.8c-5.2-8.4-7.7-17.6-7.7-27.6c0-17.1,6-31.2,17.9-42.3
	c11.9-11.1,28.9-16.7,50.9-16.7c21.8,0,38.7,5.6,50.7,16.7c12,11.1,18,25.3,18,42.3c0,10.6-2.8,20.1-8.3,28.4
	c-5.5,8.3-13.3,14.6-23.3,19c12.7,5.1,22.4,12.6,29,22.3c6.6,9.8,9.9,21.1,9.9,33.9c0,21.1-6.7,38.3-20.2,51.6
	c-13.5,13.2-31.4,19.8-53.8,19.8c-20.8,0-38.2-5.5-52-16.4c-16.4-12.9-24.5-30.6-24.5-53.1c0-12.4,3.1-23.8,9.2-34.1
	C248.2,267,257.9,259,271.1,253.4z M276.1,307.3c0,12.1,3.1,21.5,9.3,28.3c6.2,6.8,13.9,10.2,23.2,10.2c9.1,0,16.6-3.3,22.5-9.8
	c5.9-6.5,8.9-15.9,8.9-28.2c0-10.7-3-19.3-9.1-25.9c-6-6.5-13.7-9.8-23-9.8c-10.7,0-18.7,3.7-24,11.1
	C278.7,290.6,276.1,298.6,276.1,307.3z M280.2,209.2c0,8.8,2.5,15.6,7.4,20.5c4.9,4.9,11.5,7.3,19.8,7.3c8.3,0,15-2.5,20-7.4
	c5-4.9,7.5-11.8,7.5-20.5c0-8.2-2.5-14.8-7.4-19.8c-4.9-4.9-11.5-7.4-19.6-7.4c-8.4,0-15.2,2.5-20.2,7.5S280.2,200.9,280.2,209.2z" />
</svg>
